HIERARCHY
ROOT Hips
{
  OFFSET 0.0 0.0 0.0
  CHANNELS 6 XPOSITION YPOSITION ZPOSITION ZROTATION XROTATION YROTATION 
  JOINT LeftUpLeg
  {
    OFFSET 0.089458 -0.0866707 0.00101652
    CHANNELS 3 ZROTATION XROTATION YROTATION 
    JOINT LeftLeg
    {
      OFFSET 0.0 -0.444227 0.013727
      CHANNELS 3 ZROTATION XROTATION YROTATION 
      JOINT LeftFoot
      {
        OFFSET -0.00253549 -0.420924 -0.0146059
        CHANNELS 3 ZROTATION XROTATION YROTATION 
        End Site
        {
          OFFSET -0.0004 -0.0441509 0.084991
        }
      }
    }
  }
  JOINT Spine
  {
    OFFSET 0.0 0.118905 0.0
    CHANNELS 3 ZROTATION XROTATION YROTATION 
    JOINT Spine1
    {
      OFFSET 0.0 0.256574 0.00127663
      CHANNELS 3 ZROTATION XROTATION YROTATION 
      End Site
      {
        OFFSET -0.0029 0.2150836 0.02525291
      }
      JOINT RightArm
      {
        OFFSET -0.162727 -0.05365632 0.00102123
        CHANNELS 3 ZROTATION XROTATION YROTATION 
        JOINT RightForeArm
        {
          OFFSET -0.26364 0.00099144 -0.0142434
          CHANNELS 3 ZROTATION XROTATION YROTATION 
          End Site
          {
            OFFSET -0.220324 0.00085362 0.0102216
          }
        }
      }
      JOINT LeftArm
      {
        OFFSET 0.162727 -0.0536563199 0.00102123
        CHANNELS 3 ZROTATION XROTATION YROTATION 
        JOINT LeftForeArm
        {
          OFFSET 0.262597 0.00099144 -0.0142434
          CHANNELS 3 ZROTATION XROTATION YROTATION 
          End Site
          {
            OFFSET 0.220902 0.00085362 0.0102216
          }
        }
      }
    }
  }
  JOINT RightUpLeg
  {
    OFFSET -0.089458 -0.0866707 0.00101652
    CHANNELS 3 ZROTATION XROTATION YROTATION 
    JOINT RightLeg
    {
      OFFSET 0.0 -0.444227 0.013727
      CHANNELS 3 ZROTATION XROTATION YROTATION 
      JOINT RightFoot
      {
        OFFSET 0.00253549 -0.420924 -0.0146059
        CHANNELS 3 ZROTATION XROTATION YROTATION 
        End Site
        {
          OFFSET 0.0004 -0.0441509 0.084991
        }
      }
    }
  }
}
MOTION
Frames: 11
Frame Time: 0.033333
1.91206 1.02960622511 0.0416319 -5.04511026581 -0.434587034322 -90.7360988215 -1.72399001243 4.37904985474 2.46188000119 -0.222620998012 7.76782985531 22.8084997804 -1.39358003822 -11.4476002471 0.00921206089555 0.821456019224 8.08854053401 -0.198973002136 -2.07806990049 -0.882691973506 0.287450005324 78.2428700371 -17.9049806167 5.11292934851 8.01411025508 37.5198990921 8.37193959683 -73.0931806104 -10.7439336682 -1.42094946 -5.96494037907 36.5842997796 -12.5149001209 -0.27149201538 3.71850012567 -4.02337031503 -0.0736215018259 10.4734001205 -10.6755993331 2.34292990891 -13.3489003695 -0.0913344034892 
1.91199 1.02960622511 0.0417323 -5.03304985928 -0.430420005278 -90.7348967082 -1.72618997368 4.38141011199 2.4610599516 -0.228639008321 7.74122029208 22.823200055 -1.39358003822 -11.4476002471 0.00921206089555 0.75504897141 7.98783963999 -0.191880997941 -1.94735993002 -0.740784014607 0.271023000164 78.2990688335 -18.0852668749 5.24424741927 8.05570013071 37.7064998603 8.24293013001 -73.1443865386 -10.7106783309 -1.4715717272 -5.85055989679 36.6938013724 -12.6295004499 -0.284192992266 3.70484017422 -4.03729024056 -0.062912498919 10.4845000316 -10.6584999545 2.40368999111 -13.3586999834 -0.0913381987799 
1.91189 1.02960622511 0.0419274 -5.00730004611 -0.435539018618 -90.724596783 -1.74900003074 4.35689997815 2.42603986418 -0.21819000617 7.73761992861 22.8600984444 -1.39261996976 -11.4480997047 0.00921207006695 0.597047966249 7.75016015593 -0.168480009452 -1.65671990619 -0.413598023085 0.243302010406 78.3710248765 -18.240704905 5.44275235334 8.08163009012 37.8207006232 8.15074989697 -73.2515522067 -10.6883769095 -1.61165389116 -5.73121941652 36.8539010065 -12.7400001041 -0.31339599967 3.66284987875 -4.0688499834 -0.0481946985727 10.5325000398 -10.6279997448 2.43482989075 -13.3916001509 -0.0913505985081 
1.9118 1.02960622511 0.042179 -4.98624001158 -0.46936601073 -90.7343024818 -1.81192005354 4.34176982848 2.36625991413 -0.206332997874 7.72779043262 22.9346994781 -1.37901007078 -11.4467003696 0.00921203004631 0.421055015513 7.53313004128 -0.127078004045 -1.37085002244 -0.115185003854 0.234589010223 78.4073205017 -18.1747116172 5.55632858084 8.06379048978 37.701401124 8.20624006134 -73.3491351194 -10.5922872469 -1.73636460766 -5.69859032219 36.87280014 -12.7858007913 -0.383715011651 3.59796009343 -4.13217010587 -0.0346212984229 10.6299002449 -10.5336995918 2.42003015148 -13.4469998153 -0.0913717027254 
1.91176 1.02960622511 0.0424448 -4.97886981058 -0.515846995497 -90.7697033522 -1.88294014709 4.35631983896 2.32704011414 -0.217215997182 7.69002973179 23.0113000497 -1.33550998334 -11.4335001753 0.00921159982443 0.310340023625 7.44222022342 -0.0911041980997 -1.2242400119 0.0165578993324 0.244318988221 78.4300103901 -18.0386679093 5.6006518128 8.06247994724 37.6103990986 8.24955968238 -73.4020964062 -10.3941366289 -1.76806863824 -5.69255969204 36.69660175 -12.8458996258 -0.473862996607 3.54561992693 -4.20769961837 -0.0194597992498 10.7166991427 -10.3995999265 2.39755007793 -13.490000125 -0.0913880978474 
1.91177 1.02961622511 0.0426775 -4.97965015969 -0.532879993183 -90.7547998795 -1.90829999914 4.36303007293 2.3251297956 -0.234990977527 7.67878041023 23.0026000962 -1.30098999383 -11.4224993019 0.00921123963867 0.288582989633 7.4174992075 -0.0983341000785 -1.19791998466 0.0645837008006 0.231232986102 78.4747276386 -18.0434780701 5.66679323029 8.11780960215 37.6822014623 8.15640956248 -73.4300113894 -10.1909034964 -1.75702849122 -5.65197940375 36.4033988044 -12.9651999788 -0.513535990319 3.55660009635 -4.24079999575 -0.00907430985381 10.6985999951 -10.3686992969 2.37944986319 -13.4809996432 -0.0913847027632 
1.91173 1.02962622511 0.0428565 -4.98228960092 -0.511962965736 -90.6324985122 -1.88070987688 4.33931949811 2.337699905 -0.232554014056 7.72478002674 22.8730997095 -1.30014998729 -11.4272001796 0.00921138971607 0.314331015215 7.37083962395 -0.152134006067 -1.1893099976 0.142916999287 0.174915995322 78.532401756 -18.1429563602 5.73985917893 8.17814920083 37.6632989138 8.05181033798 -73.4580288253 -10.0702447896 -1.77818468201 -5.60913021199 36.1174017083 -13.0778998076 -0.476750992687 3.63659036271 -4.21334989236 -0.0132870999975 10.5738995239 -10.5148004583 2.37682002691 -13.4313996632 -0.0913656996294 
1.91162 1.02962622511 0.0429942 -4.98424004681 -0.478348990149 -90.4734985385 -1.83696016737 4.31531992092 2.3510700003 -0.222963988235 7.77165988389 22.6996999895 -1.29357006052 -11.4472997187 0.00921205005663 0.34496798882 7.31918034194 -0.208656009244 -1.16727996949 0.213474000672 0.114646993055 78.5815176463 -18.1900317315 5.73976483695 8.17709052151 37.4337977275 8.08171034484 -73.4789633551 -10.0406017686 -1.82264515808 -5.61193955418 35.9826010949 -13.1030997905 -0.418600976569 3.72339011423 -4.17266971255 -0.0210651004781 10.449299798 -10.7118001895 2.40582015636 -13.3907002735 -0.0913502983533 
1.91155 1.02963622511 0.0431233 -4.97948025873 -0.454143013174 -90.3934009101 -1.80142995019 4.30864981431 2.37515986406 -0.236780994018 7.77408033217 22.591200727 -1.24778997055 -11.4744992396 0.00921292967694 0.387362012503 7.29867013764 -0.229169975488 -1.18986996639 0.21553599743 0.0993755038238 78.6377437635 -18.244514443 5.69495025825 8.13229984848 37.3363001921 8.1516497744 -73.4763473927 -10.105985462 -1.84741142402 -5.64621002834 36.1174017083 -13.0324005025 -0.395177990069 3.75404016125 -4.16518980164 -0.00818071983991 10.4016003181 -10.7939007709 2.44082999849 -13.3780003905 -0.0913453958249 
1.9116 1.02963622511 0.0432725 -4.96381009723 -0.434864003829 -90.4077989489 -1.77569006214 4.29107018804 2.40484002421 -0.266270015594 7.76969022808 22.5765004524 -1.20595004597 -11.498399779 0.00921372008457 0.464259964078 7.26495034748 -0.216013003434 -1.27934000171 0.231089018521 0.130835995471 78.714269203 -18.4531852599 5.71372089875 8.09783983657 37.616296967 8.10941017702 -73.4690527506 -10.310472788 -1.89306291432 -5.69597990927 36.5076001703 -12.8821004822 -0.39935801248 3.73020023972 -4.17811977662 0.0205098991465 10.4049001533 -10.7640998017 2.43832011742 -13.3695002201 -0.0913421941737 
1.91175 1.02964622511 0.0434385 -4.95036999249 -0.419947991259 -90.4357002716 -1.76528000007 4.25528981519 2.41641996962 -0.280054991526 7.7960607347 22.5985004917 -1.21759007569 -11.5110006243 0.00921412946236 0.55396099853 7.18486979455 -0.187967993238 -1.36081007124 0.360246001415 0.177465990419 78.7741221507 -18.7343482895 5.79842847795 8.06382976337 37.9685025017 8.03527018113 -73.5010453567 -10.663491969 -2.04258962908 -5.79416003661 36.9941008845 -12.6456000596 -0.401150990498 3.69720999915 -4.17643997698 0.0305527001427 10.4180004561 -10.7414005218 2.41558988819 -13.3547000539 -0.0913365979543 
